<svg xmlns="http://www.w3.org/2000/svg" viewBox="0 0 300 300">
  <g fill="#191919">
    <path fill="#4a0" d="M248.4 128.6c-6.16 2.14-19.33 5.52-19.33 5.52s23.07 76.56 29.04 86.86c-26.04 8.52-103.9 30.4-92.93 68.24 6.73-10.93 12.49-44.48 128.6-44.48-8.24-16.23-40.56-91.7-45.39-116.14zM41.88 220.97c5.95-10.29 29.02-86.85 29.02-86.85s-13.17-3.38-19.3-5.52c-4.86 24.45-37.16 99.9-45.37 116.13 116.09 0 121.86 33.56 128.59 44.48 10.94-37.82-66.9-59.72-92.94-68.24z"/>
    <path fill="#55d400" d="M240.73 213.93c-10.51-16.03-24.23-88.7-25.62-107.9-42.97 9.58-60.77 61.3-60.77 61.3s3.18 64.86 4.14 101.87c8.67-33.33 57.13-48.4 82.25-55.27zM84.87 106.03c-1.39 19.2-15.1 91.87-25.64 107.9 25.14 6.88 73.62 21.94 82.25 55.27.98-37.01 4.18-101.87 4.18-101.87s-17.84-51.71-60.8-61.3z"/>
  </g>
  <path fill="#112b00" fill-rule="evenodd" d="M180.64 143.18c13.93-5.99 29.95-.93 36.33 13.14 4.57 11.29.53 24.45-11.01 29.14-9.16 3.4-20.4-.6-22.3-10.94-1.15-6.42 2.7-13.63 9.86-13.23 2.87.38 6.65 3.01 5.24 6.37-.6 1.72-1.82 1.5-3.29 1.4-.38-.13-.57-.2-1.02-.14.5-2.61-2.45-2.16-3.94-.98-4.04 3.5-1.15 9.26 2.64 11.9 7.34 4.1 16.06-.52 18.97-8.07 4.25-11.37-3.46-22.27-14.54-24.92-13.76-2.96-26.03 6.2-29.24 19.44-4.46 21.6 14.98 41.17 37.57 37.4 1.35-.16 3.02-.64 4.83-1.5l-.68 1.9a34.1 34.1 0 0 1-20.53-.21c-7.94.6-14.29 7.58-13.36 15.85 1.16 5.78 6.18 10.36 12.54 9.4 4.88-1.06 8.62-5.52 7-10.61-.97-3.34-4.7-5.53-7.99-4.12-1.87 1.05-3.2 3.58-1.57 5.02.44.58 1.65.8 1.73-.03l.26-.13c.64.02 1.09-.04 1.45.74.55 1.48-1.13 2.6-2.41 2.57-3.2-.06-4.8-3.42-4.23-6.22 1.37-4.45 6.39-5.89 10.32-4.28 4.75 2.34 6.23 8.45 3.9 13.2-3.2 5.95-10.46 7.66-16.22 4.53-.38-.13-.88-.53-1.07-.6-11.66-8.86-3.36-23.73 8.13-25.87-22.68-8.06-35.76-38.26-12.94-56.55-25.5 2.3-47.96-20.28-48.01-43.05a27.22 27.22 0 0 0-14.47.22c-11.2 3.75-18.4 14.92-14.67 26.77 3.33 9.34 13.33 15.04 22.75 10.88 6.07-3.2 9.5-11 5.46-17.16-2.37-3-7.7-4.89-10.4-1.55-.92 1.38-1.16 3.87.96 3.34-.07.19.05.45-.01.64.54 1.48.72 2.19-.83 2.93-2.72 1.6-5.09-1.39-5.68-3.96-1.1-5.97 5.06-10 10.5-9.57 9.05 1.07 13.35 10.12 11.2 18.58-3.21 10.24-14.12 14.94-24.23 11.99-12.77-4.54-18.25-18.08-14.04-30.54.2-.57.48-1.33 1-2.22a13 13 0 0 1 1.2-2.15c-11.68 2.07-24.57-9.38-15.93-22.2.07-.18.4-.5.6-1.07 4.63-4.57 12-5.39 16.96-.62 3.57 3.85 4.22 9.87.3 13.63-3.26 3.14-8.25 3.3-10.92-.66-1.75-2.34-1.29-6.04 1.87-7.07 1.34-.16 3.2.07 3.1 1.54-.15 1.02-.34.95-1.05 1.13l-.2.57c-.23-1.16-1.33-.48-1.86.41-1 2.22 1.4 3.93 3.17 4.35 3.77.27 6.4-2.88 6.53-6.27-.28-5.25-5.14-8.48-10.27-7.94-5.97 1.1-9.35 6.98-8.45 12.88 1.44 8.02 9.28 12.53 16.93 10.96 7.91-12 20.12-14.31 30.6-10.59.9-10.4 6.23-20.53 18.22-28.29.9-.75 1.94-1.24 2.78-1.8 16.97-7.27 36.75-1.31 44.6 15.86a28.72 28.72 0 0 1 1.9 6.7c10.64 11.72 29.56 9.22 36.55-4.4 3.76-8.75 1.22-19.1-7.71-23.56-7.3-3.02-16.18-.39-18.84 7.68-1.38 5.1 1.05 11.54 6.99 12.36 3.06.45 7.26-1.71 6.63-5.37.02-1.28-1.61-2.72-2.6-1.14-.12-.26-.12-.26-.31-.32-1.15-.41-1.65-.8-1.43-2.02.88-2.47 4-2.22 5.59-1.23 4.16 2.77 3.15 8.64-.23 11.51-5.53 4.69-13.42 2.1-17.01-3.47-4.14-7.7-.76-16.58 6.36-20.92 6.86-3.57 14.38-2.4 20.05 2.2-4.18-11.8 7.06-27.12 20.84-18.78a3 3 0 0 1 1.08.6c4.9 4.31 6.16 11.63 1.7 16.92-3.53 3.9-9.43 4.8-13.51 1.2-3.27-2.88-3.74-8.2.02-10.94 2.34-1.74 5.92-1.54 7.27 1.3.16 1.34.12 3.26-1.41 3.36-1.02-.15-1.08-.6-1.13-1.05-.12-.25-.12-.25-.31-.32 1.15-.24.54-1.53-.41-1.87-2.3-.8-3.93 1.4-4.23 3.44-.01 3.64 3.4 6.14 6.73 5.83 5.25-.28 8.17-5.47 7.18-10.54-1.54-5.92-7.5-9.1-13.34-7.75-8.68 2.06-12.52 11.65-9.1 19.52a17.35 17.35 0 0 1 4.5 5.46c.06.45.24 1.16.67 1.74 8.76 26.08-24.68 38.02-40.22 21.97 1.24 11.6-3.92 23.08-15.46 27.77-11.34 4.13-24.8-.88-27.62-13.47-1.2-7.5 3.4-16.82 12.22-16.26 3.77.27 8.18 3.55 6.69 7.75-1 2.21-2.34 1.74-4.12 1.32-.26.12-.64-.01-1.1.04.45-3.06-3.33-2.69-4.7-1.24-4.82 4.5-1.32 11.55 3.23 14.45 9.3 5.24 19.59-.76 23.22-9.77 5.14-13.84-4.44-27.34-18.06-30.68-16.82-3.4-31.76 7.8-35.86 24.17-.28 1.4-.57 2.8-.47 4.34 11 6.49 18.99 19.63 15.64 33.9 8 5.85 18.43 9.13 29.72 7.56.06-.19.06-.19.32-.31a8.52 8.52 0 0 1 1.94-1.25zm-48.2-37.1a38.32 38.32 0 0 0 14.75 30.36c.4-1.14.48-1.97.76-2.74a28.67 28.67 0 0 0-15.5-27.62z"/>
  <g stroke-width="2.12">
    <path fill="#e194af" d="M113.8 77.4a65.9 65.9 0 0 1-14.71-10.7C94.34 62 91 56.85 89.26 51.5c-.66-2-1.06-3.9-1.22-5.86a16.26 16.26 0 0 1 1.74-8.81 13.88 13.88 0 0 1 10.62-7.6 15.18 15.18 0 0 1 3.23-.05 11.84 11.84 0 0 1 8.05 4.31 14.57 14.57 0 0 1 2.56 4.7c.06.17.11.3.13.3l.14-.37a14.5 14.5 0 0 1 2.16-4.13 11.87 11.87 0 0 1 7.18-4.62c1.24-.25 2.79-.31 4.12-.18a13.44 13.44 0 0 1 6.17 2.2 14.78 14.78 0 0 1 5.65 7.37 17.38 17.38 0 0 1 .67 8.85 30.05 30.05 0 0 1-3.14 8.97c-3.41 6.43-9.06 12.31-16.7 17.38a74.86 74.86 0 0 1-6.25 3.74l-.56-.3z"/>
    <path fill="#d15685" d="M113.75 77.34a77.55 77.55 0 0 1-8.7-5.57l-.61-.47a61.15 61.15 0 0 1-3.6-3 52.5 52.5 0 0 1-3.7-3.68c-4.13-4.59-6.97-9.61-8.32-14.68a22.65 22.65 0 0 1-.77-4.86c-.09-2.08.18-4.04.79-5.91a14.47 14.47 0 0 1 7.82-8.88 14.08 14.08 0 0 1 7.63-1 11.64 11.64 0 0 1 7.3 4.15 14.38 14.38 0 0 1 2.62 4.76c.08.24.13.36.16.36.02 0 .06-.09.17-.42a13.4 13.4 0 0 1 5.54-7.25c.37-.23 1.13-.62 1.53-.79a13.01 13.01 0 0 1 6.88-.81 13.52 13.52 0 0 1 8.35 4.5 14.81 14.81 0 0 1 2.16 3.22 15.07 15.07 0 0 1 1.41 4.16 15.76 15.76 0 0 1 .24 4.71 28.15 28.15 0 0 1-3.04 10.08c-4 7.92-11.46 15.09-21.78 20.9-.82.46-1.43.8-1.46.8-.03 0-.3-.15-.62-.32zM89.7 45.39a25.82 25.82 0 0 1 8.16-10.91 22.58 22.58 0 0 1 6.84-3.64c.02-.02-.66 0-1.22.04-3.27.24-6.04 1.2-8.23 2.84-.51.38-.83.66-1.35 1.19a12.76 12.76 0 0 0-2 2.53 17.76 17.76 0 0 0-2.39 7.69 2.49 2.49 0 0 0-.01.74l.2-.48z"/>
    <path fill="#cc3a78" d="M113.75 77.32a79.76 79.76 0 0 1-5.43-3.27 46.62 46.62 0 0 1-3.37-2.4A58.97 58.97 0 0 0 114.97 68a51.52 51.52 0 0 0 13.69-9.32 50.51 50.51 0 0 0 11.56-16.87l.2-.44a17.35 17.35 0 0 1 .24 1.83c.02.41.02 1.92 0 2.32a28.64 28.64 0 0 1-3.7 11.62c-4.14 7.47-11.33 14.18-21.13 19.7-.8.45-1.43.8-1.46.8-.03 0-.3-.15-.62-.32z"/>
  </g>
</svg>
