<svg xmlns="http://www.w3.org/2000/svg" viewBox="0 0 300 300">
  <g fill="#191919">
    <path fill="#08a" d="M248.4 128.6c-6.16 2.14-19.33 5.52-19.33 5.52s23.07 76.56 29.04 86.86c-26.04 8.52-103.9 30.4-92.93 68.24 6.73-10.93 12.49-44.48 128.6-44.48-8.24-16.23-40.56-91.7-45.39-116.14zM41.88 220.97c5.95-10.29 29.02-86.85 29.02-86.85s-13.17-3.38-19.3-5.52c-4.86 24.45-37.16 99.9-45.37 116.13 116.09 0 121.86 33.56 128.59 44.48 10.94-37.82-66.9-59.72-92.94-68.24z"/>
    <path fill="#0cf" d="M240.73 213.93c-10.51-16.03-24.23-88.7-25.62-107.9-42.97 9.58-60.77 61.3-60.77 61.3s3.18 64.86 4.14 101.87c8.67-33.33 57.13-48.4 82.25-55.27zM84.87 106.03c-1.39 19.2-15.1 91.87-25.64 107.9 25.14 6.88 73.62 21.94 82.25 55.27.98-37.01 4.18-101.87 4.18-101.87s-17.84-51.71-60.8-61.3z"/>
  </g>
  <path fill="#045" fill-rule="evenodd" d="M180.64 143.18c13.93-5.99 29.95-.93 36.33 13.14 4.57 11.29.53 24.45-11.01 29.14-9.16 3.4-20.4-.6-22.3-10.94-1.15-6.42 2.7-13.63 9.86-13.23 2.87.38 6.65 3.01 5.24 6.37-.6 1.72-1.82 1.5-3.29 1.4-.38-.13-.57-.2-1.02-.14.5-2.61-2.45-2.16-3.94-.98-4.04 3.5-1.15 9.26 2.64 11.9 7.34 4.1 16.06-.52 18.97-8.07 4.25-11.37-3.46-22.27-14.54-24.92-13.76-2.96-26.03 6.2-29.24 19.44-4.46 21.6 14.98 41.17 37.57 37.4 1.35-.16 3.02-.64 4.83-1.5l-.68 1.9a34.1 34.1 0 0 1-20.53-.21c-7.94.6-14.29 7.58-13.36 15.85 1.16 5.78 6.18 10.36 12.54 9.4 4.88-1.06 8.62-5.52 7-10.61-.97-3.34-4.7-5.53-7.99-4.12-1.87 1.05-3.2 3.58-1.57 5.02.44.58 1.65.8 1.73-.03l.26-.13c.64.02 1.09-.04 1.45.74.55 1.48-1.13 2.6-2.41 2.57-3.2-.06-4.8-3.42-4.23-6.22 1.37-4.45 6.39-5.89 10.32-4.28 4.75 2.34 6.23 8.45 3.9 13.2-3.2 5.95-10.46 7.66-16.22 4.53-.38-.13-.88-.53-1.07-.6-11.66-8.86-3.36-23.73 8.13-25.87-22.68-8.06-35.76-38.26-12.94-56.55-25.5 2.3-47.96-20.28-48.01-43.05a27.22 27.22 0 0 0-14.47.22c-11.2 3.75-18.4 14.92-14.67 26.77 3.33 9.34 13.33 15.04 22.75 10.88 6.07-3.2 9.5-11 5.46-17.16-2.37-3-7.7-4.89-10.4-1.55-.92 1.38-1.16 3.87.96 3.34-.07.19.05.45-.01.64.54 1.48.72 2.19-.83 2.93-2.72 1.6-5.09-1.39-5.68-3.96-1.1-5.97 5.06-10 10.5-9.57 9.05 1.07 13.35 10.12 11.2 18.58-3.21 10.24-14.12 14.94-24.23 11.99-12.77-4.54-18.25-18.08-14.04-30.54.2-.57.48-1.33 1-2.22a13 13 0 0 1 1.2-2.15c-11.68 2.07-24.57-9.38-15.93-22.2.07-.18.4-.5.6-1.07 4.63-4.57 12-5.39 16.96-.62 3.57 3.85 4.22 9.87.3 13.63-3.26 3.14-8.25 3.3-10.92-.66-1.75-2.34-1.29-6.04 1.87-7.07 1.34-.16 3.2.07 3.1 1.54-.15 1.02-.34.95-1.05 1.13l-.2.57c-.23-1.16-1.33-.48-1.86.41-1 2.22 1.4 3.93 3.17 4.35 3.77.27 6.4-2.88 6.53-6.27-.28-5.25-5.14-8.48-10.27-7.94-5.97 1.1-9.35 6.98-8.45 12.88 1.44 8.02 9.28 12.53 16.93 10.96 7.91-12 20.12-14.31 30.6-10.59.9-10.4 6.23-20.53 18.22-28.29.9-.75 1.94-1.24 2.78-1.8 16.97-7.27 36.75-1.31 44.6 15.86a28.72 28.72 0 0 1 1.9 6.7c10.64 11.72 29.56 9.22 36.55-4.4 3.76-8.75 1.22-19.1-7.71-23.56-7.3-3.02-16.18-.39-18.84 7.68-1.38 5.1 1.05 11.54 6.99 12.36 3.06.45 7.26-1.71 6.63-5.37.02-1.28-1.61-2.72-2.6-1.14-.12-.26-.12-.26-.31-.32-1.15-.41-1.65-.8-1.43-2.02.88-2.47 4-2.22 5.59-1.23 4.16 2.77 3.15 8.64-.23 11.51-5.53 4.69-13.42 2.1-17.01-3.47-4.14-7.7-.76-16.58 6.36-20.92 6.86-3.57 14.38-2.4 20.05 2.2-4.18-11.8 7.06-27.12 20.84-18.78a3 3 0 0 1 1.08.6c4.9 4.31 6.16 11.63 1.7 16.92-3.53 3.9-9.43 4.8-13.51 1.2-3.27-2.88-3.74-8.2.02-10.94 2.34-1.74 5.92-1.54 7.27 1.3.16 1.34.12 3.26-1.41 3.36-1.02-.15-1.08-.6-1.13-1.05-.12-.25-.12-.25-.31-.32 1.15-.24.54-1.53-.41-1.87-2.3-.8-3.93 1.4-4.23 3.44-.01 3.64 3.4 6.14 6.73 5.83 5.25-.28 8.17-5.47 7.18-10.54-1.54-5.92-7.5-9.1-13.34-7.75-8.68 2.06-12.52 11.65-9.1 19.52a17.35 17.35 0 0 1 4.5 5.46c.06.45.24 1.16.67 1.74 8.76 26.08-24.68 38.02-40.22 21.97 1.24 11.6-3.92 23.08-15.46 27.77-11.34 4.13-24.8-.88-27.62-13.47-1.2-7.5 3.4-16.82 12.22-16.26 3.77.27 8.18 3.55 6.69 7.75-1 2.21-2.34 1.74-4.12 1.32-.26.12-.64-.01-1.1.04.45-3.06-3.33-2.69-4.7-1.24-4.82 4.5-1.32 11.55 3.23 14.45 9.3 5.24 19.59-.76 23.22-9.77 5.14-13.84-4.44-27.34-18.06-30.68-16.82-3.4-31.76 7.8-35.86 24.17-.28 1.4-.57 2.8-.47 4.34 11 6.49 18.99 19.63 15.64 33.9 8 5.85 18.43 9.13 29.72 7.56.06-.19.06-.19.32-.31a8.52 8.52 0 0 1 1.94-1.25zm-48.2-37.1a38.32 38.32 0 0 0 14.75 30.36c.4-1.14.48-1.97.76-2.74a28.67 28.67 0 0 0-15.5-27.62z"/>
  <g stroke-width="2.12">
    <path fill="#e194af" d="M148.9 103.26c-11.06-6.08-20.3-12.8-27.9-20.3-9-8.88-15.32-18.64-18.65-28.8-1.25-3.8-2-7.4-2.3-11.13-.07-.84-.07-4.06 0-4.88.37-4.4 1.43-8.2 3.3-11.84 4.15-8.03 11.51-13.3 20.13-14.4a28.8 28.8 0 0 1 6.14-.1 22.46 22.46 0 0 1 15.26 8.18 27.64 27.64 0 0 1 4.86 8.89c.11.34.22.6.24.6.02 0 .15-.33.27-.71a27.5 27.5 0 0 1 4.1-7.84 22.51 22.51 0 0 1 13.63-8.76c2.34-.48 5.28-.6 7.81-.34A25.49 25.49 0 0 1 187.5 16a28.03 28.03 0 0 1 10.7 13.97 32.96 32.96 0 0 1 1.28 16.8 57 57 0 0 1-5.95 17.01c-6.48 12.2-17.2 23.36-31.67 32.96a142.01 142.01 0 0 1-11.88 7.1l-1.06-.58z"/>
    <path fill="#d15685" d="M148.81 103.16a147.1 147.1 0 0 1-16.5-10.56l-1.16-.9a116 116 0 0 1-6.82-5.67 99.57 99.57 0 0 1-7.01-7c-7.84-8.7-13.24-18.23-15.8-27.85a42.96 42.96 0 0 1-1.46-9.21c-.16-3.95.34-7.66 1.5-11.22 2.51-7.68 7.9-13.79 14.84-16.83a26.7 26.7 0 0 1 14.46-1.89c4.18.65 7.82 2.31 11.12 5.09.66.56 2.14 2.05 2.73 2.76a27.27 27.27 0 0 1 4.98 9.03c.15.46.24.68.29.69.05 0 .12-.17.33-.8 1.92-5.84 5.7-10.79 10.51-13.75.71-.44 2.14-1.18 2.9-1.5a24.68 24.68 0 0 1 13.05-1.54 25.65 25.65 0 0 1 15.85 8.55 28.1 28.1 0 0 1 4.09 6.09 28.58 28.58 0 0 1 2.68 7.9c.18.85.34 1.96.47 3.38.08.87.07 4.62-.02 5.56a53.4 53.4 0 0 1-5.77 19.11c-7.58 15.03-21.74 28.63-41.32 39.66-1.54.87-2.7 1.5-2.77 1.5-.04 0-.56-.27-1.17-.6zm-45.61-60.6a48.97 48.97 0 0 1 15.47-20.7 42.84 42.84 0 0 1 12.98-6.91c.03-.04-1.26 0-2.31.08-6.22.45-11.46 2.26-15.62 5.39-.97.72-1.57 1.25-2.56 2.25a24.2 24.2 0 0 0-3.78 4.8 33.69 33.69 0 0 0-4.54 14.59 4.72 4.72 0 0 0-.03 1.4c.02-.02.2-.42.39-.9z"/>
    <path fill="#cc3a78" d="M148.81 103.12a151.29 151.29 0 0 1-10.3-6.2c-2.46-1.63-6.47-4.48-6.39-4.56a111.86 111.86 0 0 0 19-6.92 97.72 97.72 0 0 0 25.97-17.68 95.82 95.82 0 0 0 21.94-32l.38-.83a32.92 32.92 0 0 1 .44 3.47c.05.78.05 3.64 0 4.4-.48 6.98-2.93 14.7-7 22.04-7.87 14.18-21.5 26.9-40.1 37.38-1.5.85-2.7 1.5-2.77 1.5-.04 0-.56-.27-1.17-.6z"/>
  </g>
</svg>
